<svg id="Layer_1" data-name="Layer 1" xmlns="http://www.w3.org/2000/svg" viewBox="0 0 250 120"><defs><style>.cls-1{font-size:48px;font-family:Merienda-Bold, Merienda;font-weight:700;letter-spacing:-0.05em;}.cls-1,.cls-2{fill:#41a464;}.cls-3,.cls-4{fill:#fff;}.cls-4{stroke:#fff;stroke-miterlimit:10;}</style></defs><text class="cls-1" transform="translate(103.93 57.9)">Green<tspan x="0" y="50">Meals</tspan></text><path class="cls-2" d="M24.58,58.69a61.84,61.84,0,0,1-12-7.28s-3,70.29,40.55,54.07C71.78,76.18,41.86,67,24.58,58.69Z"/><path class="cls-2" d="M97.62,69.34a62.17,62.17,0,0,1,5.51-12.88s-70,7-47.78,47.79C87,118.55,91.81,87.64,97.62,69.34Z"/><path class="cls-2" d="M69.48,32.93A62.39,62.39,0,0,1,68,19S10.26,59.11,49.47,84C84.08,81.11,73.28,51.75,69.48,32.93Z"/><path class="cls-2" d="M39.32,87.08a.35.35,0,0,1-.17.41c-.21.09-.63-.14-.95-.51l-4.13-4.84.73-.62L39,86.43A1.54,1.54,0,0,1,39.32,87.08Z"/><path class="cls-3" d="M26.63,65.74a1.88,1.88,0,0,0-.17,2.65l3.48,4.08a.39.39,0,0,1,0,.54.38.38,0,0,1-.53-.06L25.9,68.87a1.85,1.85,0,1,0-2.81,2.4l3.48,4.08a.37.37,0,1,1-.57.48l-3.47-4.08a1.85,1.85,0,1,0-2.82,2.39L26.42,82a3.76,3.76,0,0,0,5.29.52l18.56,21.78a2.73,2.73,0,0,0,3.56.61c.08,0,.14-.11.21-.16a2.54,2.54,0,0,0,.87-1.66,2.69,2.69,0,0,0-.64-2.06L35.65,79.18A3.77,3.77,0,0,0,36,73.87L29.28,66A1.89,1.89,0,0,0,26.63,65.74Z"/><path class="cls-3" d="M54.93,43.82c-4.58,0-8.3,5-8.3,11.07A12.62,12.62,0,0,0,50,63.82a6.75,6.75,0,0,1,2.14,4.8V98.15A2.85,2.85,0,0,0,54.47,101a2.45,2.45,0,0,0,.46,0,2.78,2.78,0,0,0,2.77-2.77V68.62a6.7,6.7,0,0,1,2.15-4.8,12.62,12.62,0,0,0,3.38-8.93c0-6.1-3.72-11.07-8.3-11.07Zm.34,32.07c-.11.18-.25.25-.39.21s-.39-.51-.39-1V68.73h.95v6.46A1.34,1.34,0,0,1,55.27,75.89Z"/><path class="cls-4" d="M88,67.5a1.77,1.77,0,0,0-1.41-.39A30.62,30.62,0,0,0,68,77.63l-3.44,4.06A3.09,3.09,0,0,0,64.81,86a1.53,1.53,0,0,1,.13,2.17L55.25,99.63a3,3,0,1,0,4.59,3.89L88.2,70.1A1.84,1.84,0,0,0,88,67.5ZM78.12,80.06a.89.89,0,0,1-.68-.33.94.94,0,0,1,.08-1.21l4-4.65L82.86,75,78.8,79.75A.89.89,0,0,1,78.12,80.06Z"/><path class="cls-2" d="M39.62,86.89c0,.21,0,.36-.15.42s-.64-.1-1-.47l-4.34-4.65.7-.65,4.4,4.72A1.36,1.36,0,0,1,39.62,86.89Z"/></svg>