<svg id="Layer_1" data-name="Layer 1" xmlns="http://www.w3.org/2000/svg" viewBox="0 0 100 100"><defs><style>.cls-1{fill:#41a464;}.cls-2,.cls-3{fill:#fff;}.cls-3{stroke:#fff;stroke-miterlimit:10;}</style></defs><path class="cls-1" d="M18.401,45.23976A62.0908,62.0908,0,0,1,6.4263,37.96205s-2.96387,70.28361,40.546,54.06873C65.6061,62.72725,35.68733,53.58383,18.401,45.23976Z"/><path class="cls-1" d="M91.44892,55.89037a62.09107,62.09107,0,0,1,5.51026-12.88394s-69.99593,7.01-47.78817,47.788C80.81618,105.09481,85.63455,74.18336,91.44892,55.89037Z"/><path class="cls-1" d="M63.30593,19.47906A62.09144,62.09144,0,0,1,61.86579,5.54045S4.08265,45.66127,43.29923,70.52266C77.907,67.65522,67.10709,38.29373,63.30593,19.47906Z"/><path class="cls-1" d="M33.14084,73.6238c.03223.20647-.02726.35172-.16482.412-.21382.09011-.63267-.13474-.954-.51178l-4.1248-4.83971.72716-.61974L32.8132,72.9794A1.3948,1.3948,0,0,1,33.14084,73.6238Z"/><path class="cls-2" d="M20.45319,52.28707a1.88379,1.88379,0,0,0-.16439,2.65512l3.47639,4.08052a.36964.36964,0,1,1-.56238.47912l-3.47639-4.08052a1.8482,1.8482,0,1,0-2.81191,2.39561l3.47639,4.08051a.36964.36964,0,1,1-.56238.47912L16.35213,58.296a1.8482,1.8482,0,1,0-2.81191,2.39561l6.70447,7.86956a3.7676,3.7676,0,0,0,5.29505.519L44.09225,90.85677a2.7339,2.7339,0,0,0,3.56784.60725,2.43508,2.43508,0,0,0,.20521-.15672,2.5419,2.5419,0,0,0,.875-1.65588,2.727,2.727,0,0,0-.64032-2.06513L29.47641,65.7264a3.76759,3.76759,0,0,0,.32877-5.31025l-6.70447-7.86956A1.88379,1.88379,0,0,0,20.45319,52.28707Z"/><path class="cls-2" d="M48.75688,30.37148c-4.57851,0-8.30276,4.966-8.30276,11.07035a12.61038,12.61038,0,0,0,3.38752,8.92546,6.73293,6.73293,0,0,1,2.14765,4.80084V84.702a2.84335,2.84335,0,0,0,2.31,2.82847,2.76894,2.76894,0,0,0,3.22516-2.72976V55.16813a6.735,6.735,0,0,1,2.14765-4.80176,12.60651,12.60651,0,0,0,3.38753-8.92454c0-6.10438-3.72425-11.07035-8.30276-11.07035Zm.342,32.0688c-.1094.178-.24889.25-.39268.20665-.22119-.07012-.39412-.51293-.39412-1.00833v-6.359h.95543v6.4577A1.39489,1.39489,0,0,1,49.09886,62.44028Z"/><path class="cls-3" d="M81.87031,54.04916a1.76747,1.76747,0,0,0-1.41146-.39013A30.60783,30.60783,0,0,0,61.82514,64.1791l-3.44086,4.056a3.086,3.086,0,0,0,.254,4.35007,1.543,1.543,0,0,1,.127,2.175L49.07709,86.18038A3.01117,3.01117,0,1,0,53.66441,90.072L82.0219,56.64506A1.84151,1.84151,0,0,0,81.87031,54.04916Zm-9.924,12.55564a.90051.90051,0,0,1-.68385-.32579.96493.96493,0,0,1,.078-1.215l3.99779-4.64508,1.34776,1.16L72.62616,66.296A.88746.88746,0,0,1,71.94634,66.6048Z"/><path class="cls-1" d="M33.35621,73.38469c.04142.20482-.01152.35258-.14626.41893-.20958.09957-.638-.10634-.97591-.46865L27.89721,68.6843l.69876-.6516,4.40415,4.72286A1.39478,1.39478,0,0,1,33.35621,73.38469Z"/></svg>